<svg width="40" height="40" viewBox="0 0 40 40" fill="none" xmlns="http://www.w3.org/2000/svg">
<path fill-rule="evenodd" clip-rule="evenodd" d="M21.7699 11.5191C20.8765 12.4108 20.5682 15.4308 20.4849 18.339L20.4749 21.6724C20.5632 25.4007 20.9965 27.684 21.7699 28.4574C22.7099 29.3957 24.2765 28.914 25.5365 28.3907C28.1515 27.3057 35.7115 22.729 35.7115 19.9874C35.7115 17.1624 27.8149 12.6008 25.4165 11.6058C24.1132 11.0641 22.6615 10.6308 21.7699 11.5191Z" fill="white"/>
<path opacity="0.4" fill-rule="evenodd" clip-rule="evenodd" d="M20.4832 18.3395H6.78825C5.86658 18.3395 5.12158 19.0845 5.12158 20.0061C5.12158 20.9278 5.86658 21.6728 6.78825 21.6728H20.4732L20.4832 18.3395Z" fill="white"/>
</svg>
