<svg width="769" height="480" viewBox="0 0 769 480" fill="none" xmlns="http://www.w3.org/2000/svg">
<path d="M1.50001 472C-12.1 358.4 219.167 345 336.5 352.5C497.833 374.833 809.2 375.7 764 200.5C718.8 25.3 592.833 -4.83333 535.5 2H494" stroke="#C90909"/>
<path d="M103.901 479C98.4009 410.333 115.501 277.5 227.901 295.5C368.401 318 654.401 494 703.401 400.5C742.601 325.7 672.734 139.667 632.901 56C627.401 48 607.701 29.8 572.901 21C538.101 12.2 509.734 5.33333 499.901 3" stroke="#3D0000"/>
<path d="M5.58874 471.508C-1.16126 414.252 51.8201 378.614 124.204 363.333C197.669 348.225 292.467 353.575 350.762 353.585C507.398 372.183 804.102 365.861 759.108 194.181C715.435 25.412 593.555 -4.26239 537.089 1.96967C495.846 1.6312 494.755 1.3671 494.377 1.27736" stroke="#C30909"/>
<path d="M9.67779 471.769C2.97779 414.056 54.5239 374.53 128.509 360.58C204.655 346.976 307.101 359.153 365.024 355.422C516.962 370.284 799.003 356.774 754.216 188.615C712.07 26.2762 594.278 -2.93915 538.678 2.69162C497.693 2.0147 495.511 1.48649 494.755 1.30701" stroke="#BE0808"/>
<path d="M13.7671 472.091C7.11713 413.921 57.228 370.508 132.813 357.889C211.641 345.79 321.735 364.793 379.286 357.322C526.527 368.447 793.906 347.748 749.325 183.11C708.706 27.2023 595.001 -1.55413 540.267 3.47536C499.54 2.45998 496.267 1.66767 495.133 1.39844" stroke="#B90808"/>
<path d="M17.8568 472.413C11.2568 413.787 59.9324 366.486 137.118 355.198C218.627 344.603 336.37 370.432 393.549 359.221C536.093 366.61 788.808 338.723 744.434 177.605C705.341 28.1282 595.723 -0.169228 541.857 4.25898C501.388 2.90513 497.023 1.84872 495.511 1.48975" stroke="#B30808"/>
<path d="M21.9469 472.735C15.3969 413.653 62.6373 362.464 141.424 352.508C225.614 343.417 351.005 376.072 407.812 361.12C545.658 364.774 783.711 329.698 739.543 172.1C701.978 29.0542 596.447 1.21579 543.447 5.04272C503.235 3.35041 497.78 2.02989 495.889 1.58118" stroke="#AE0707"/>
<path d="M26.0373 473.057C19.5373 413.519 65.3424 358.442 145.73 349.817C232.601 342.23 365.64 381.711 422.076 363.019C555.224 362.937 778.614 320.672 734.653 166.596C698.614 29.9802 597.171 2.60069 545.037 5.82633C505.083 3.79556 498.537 2.21095 496.268 1.67249" stroke="#A90707"/>
<path d="M30.1281 473.379C23.6781 413.384 68.048 354.42 150.036 347.126C239.589 341.044 380.276 387.35 436.34 364.918C564.791 361.1 773.518 311.647 729.763 161.091C695.251 30.9062 597.895 3.98571 546.628 6.61007C506.932 4.24084 499.295 2.39212 496.647 1.76392" stroke="#A30707"/>
<path d="M34.2194 473.701C27.8194 413.25 70.754 350.398 154.342 344.435C246.577 339.857 394.912 392.99 450.604 366.817C574.358 359.263 768.422 302.622 724.873 155.586C691.889 31.8321 598.619 5.37061 548.219 7.39369C508.781 4.68599 500.053 2.57317 497.027 1.85522" stroke="#9E0606"/>
<path d="M38.3112 474.024C31.9612 413.116 73.4605 346.376 158.65 341.744C253.566 338.671 409.548 398.629 464.869 368.716C583.925 357.426 763.327 293.597 719.984 150.081C688.527 32.7582 599.345 6.75563 549.811 8.17742C510.63 5.13127 500.811 2.75435 497.407 1.94666" stroke="#980606"/>
<path d="M42.4035 474.346C36.1035 412.982 76.1676 342.353 162.957 339.053C260.555 337.484 424.185 404.269 479.134 370.615C593.493 355.589 758.232 284.571 715.096 144.576C685.165 33.6841 600.07 8.14053 551.403 8.96104C512.48 5.57643 501.57 2.9354 497.788 2.03796" stroke="#930606"/>
<path d="M46.4963 474.668C40.2463 412.847 78.8751 338.331 167.266 336.363C267.544 336.298 438.823 409.908 493.4 372.514C603.062 353.752 753.137 275.546 710.208 139.072C681.804 34.6102 600.796 9.52555 552.996 9.74478C514.331 6.0217 502.33 3.11657 498.169 2.12939" stroke="#8E0505"/>
<path d="M50.5897 474.99C44.3897 412.713 81.5833 334.309 171.574 333.672C274.535 335.111 453.462 415.548 507.667 374.413C612.631 351.916 748.044 266.521 705.321 133.567C678.444 35.5361 601.523 10.9104 554.59 10.5284C516.182 6.46686 503.09 3.29763 498.551 2.2207" stroke="#880505"/>
<path d="M54.6838 475.312C48.5338 412.579 84.2921 330.287 175.884 330.981C281.525 333.925 468.1 421.187 521.934 376.312C622.2 350.079 742.95 257.495 700.434 128.062C675.084 36.4621 602.25 12.2955 556.184 11.3121C518.034 6.91213 503.85 3.4788 498.934 2.31213" stroke="#830505"/>
<path d="M58.7786 475.634C52.6786 412.445 87.0017 326.265 180.194 328.29C288.517 332.738 482.74 426.827 536.202 378.211C631.771 348.242 737.858 248.47 695.548 122.557C671.725 37.3882 602.979 13.6805 557.779 12.0959C519.886 7.35741 504.612 3.65997 499.317 2.40356" stroke="#7E0404"/>
<path d="M62.8741 475.956C56.8241 412.31 89.7119 322.243 184.505 325.599C295.509 331.552 497.381 432.466 550.47 380.11C641.342 346.405 732.766 239.445 690.663 117.053C668.366 38.3141 603.707 15.0654 559.374 12.8795C521.74 7.80256 505.374 3.84103 499.701 2.49487" stroke="#780404"/>
<path d="M66.9705 476.279C60.9705 412.176 92.4231 318.221 188.817 322.908C302.503 330.365 512.022 438.106 564.74 382.009C650.914 344.568 727.676 230.42 685.778 111.548C665.009 39.2402 604.437 16.4504 560.971 13.6632C523.594 8.24784 506.137 4.0222 500.086 2.5863" stroke="#730404"/>
<path d="M71.0678 476.601C65.1178 412.042 95.1351 314.199 193.129 320.218C309.497 329.179 526.664 443.745 579.01 383.908C660.487 342.731 722.586 221.394 680.895 106.043C661.652 40.1661 605.168 17.8353 562.568 14.4468C525.449 8.693 506.901 4.20325 500.472 2.67761" stroke="#6D0303"/>
<path d="M75.166 476.923C69.266 411.908 97.8481 310.177 197.443 317.527C316.492 327.992 541.307 449.384 593.281 385.808C670.061 340.895 717.497 212.369 676.012 100.538C658.297 41.0921 605.899 19.2203 564.166 15.2306C527.304 9.13827 507.666 4.38443 500.858 2.76904" stroke="#680303"/>
<path d="M79.2653 477.245C73.4153 411.773 100.562 306.155 201.758 314.836C323.488 326.806 555.951 455.024 607.554 387.707C679.636 339.058 712.409 203.344 671.131 95.0334C654.942 42.018 606.632 20.6052 565.765 16.0142C529.161 9.58343 508.432 4.56548 501.246 2.86035" stroke="#630202"/>
<path d="M83.3658 477.567C77.5658 411.639 103.277 302.133 206.073 312.145C330.485 325.619 570.597 460.663 621.827 389.606C689.212 337.221 707.322 194.318 666.25 89.5287C651.589 42.9441 607.366 21.9902 567.366 16.7979C531.02 10.0287 509.199 4.74665 501.635 2.95178" stroke="#5D0202"/>
<path d="M87.4675 477.889C81.7175 411.505 105.994 298.11 210.391 309.454C337.484 324.433 585.243 466.303 636.102 391.505C698.789 335.384 702.237 185.293 661.371 84.0239C648.237 43.87 608.101 23.3751 568.968 17.5816C532.879 10.4739 509.968 4.92771 502.025 3.04309" stroke="#580202"/>
<path d="M91.5707 478.211C85.8707 411.37 108.712 294.088 214.709 306.763C344.483 323.246 599.891 471.942 650.378 393.404C708.368 333.547 697.153 176.268 656.494 78.5191C644.886 44.7961 608.837 24.7602 570.571 18.3653C534.74 10.9191 510.737 5.10888 502.417 3.13452" stroke="#530101"/>
<path d="M95.6753 478.534C90.0253 411.236 111.431 290.066 219.029 304.072C351.485 322.059 614.541 477.582 664.656 395.303C717.948 331.71 692.07 167.242 651.618 73.0143C641.537 45.722 609.575 26.1451 572.175 19.1489C536.602 11.3643 511.509 5.28993 502.81 3.22583" stroke="#4D0101"/>
<path d="M99.7817 478.856C94.1817 411.102 114.152 286.044 223.351 301.382C358.488 320.873 629.192 483.221 678.936 397.202C727.53 329.874 686.989 158.217 646.743 67.5096C638.189 46.648 610.315 27.5301 573.782 19.9326C538.466 11.8096 512.282 5.47111 503.205 3.31726" stroke="#480101"/>
<path d="M103.89 479.178C98.3398 410.968 116.875 282.022 227.674 298.691C365.493 319.686 643.845 488.861 693.217 399.101C737.114 328.037 681.91 149.192 641.871 62.0047C634.844 47.574 611.056 28.915 575.39 20.7163C540.332 12.2547 513.056 5.65216 503.601 3.40857" stroke="#420000"/>
</svg>
