<svg width="97" height="97" viewBox="0 0 97 97" fill="none" xmlns="http://www.w3.org/2000/svg">
<path d="M7.53678 84.4855H10.6594C12.0823 84.4855 13.1157 84.6882 13.7581 85.0934C14.4012 85.4986 14.7224 86.1425 14.7224 87.0258C14.7224 87.6255 14.5813 88.117 14.2999 88.5012C14.0185 88.8855 13.644 89.1166 13.1772 89.1947V89.263C13.8136 89.4048 14.2722 89.6705 14.5536 90.0592C14.835 90.4479 14.9761 90.965 14.9761 91.6104C14.9761 92.5259 14.6459 93.2396 13.984 93.7522C13.3228 94.2648 12.4245 94.5207 11.2898 94.5207H7.53678V84.4855ZM9.66433 88.46H10.8996C11.4759 88.46 11.8939 88.3707 12.1521 88.1928C12.411 88.0142 12.5401 87.7193 12.5401 87.3073C12.5401 86.923 12.3998 86.6476 12.1183 86.4803C11.8369 86.3129 11.3919 86.2296 10.7833 86.2296H9.66433V88.46ZM9.66433 90.1485V92.7638H11.0512C11.6365 92.7638 12.0688 92.652 12.3487 92.4276C12.6286 92.2032 12.7675 91.8603 12.7675 91.398C12.7675 90.5658 12.1724 90.1485 10.9829 90.1485H9.66433ZM26.0889 89.4896C26.0889 91.1504 25.6769 92.4276 24.8536 93.3199C24.0304 94.2122 22.8499 94.6588 21.3122 94.6588C19.7745 94.6588 18.594 94.2122 17.7708 93.3199C16.9468 92.4276 16.5355 91.1466 16.5355 89.4761C16.5355 87.8056 16.9483 86.5305 17.7745 85.6495C18.6008 84.7685 19.7843 84.3279 21.3265 84.3279C22.8687 84.3279 24.0476 84.7722 24.8649 85.6592C25.6806 86.547 26.0889 87.8243 26.0889 89.4896ZM18.7659 89.4896C18.7659 90.6108 18.9783 91.455 19.4045 92.0224C19.83 92.5897 20.4657 92.8734 21.3122 92.8734C23.0097 92.8734 23.8585 91.7455 23.8585 89.4896C23.8585 87.2292 23.0142 86.099 21.3257 86.099C20.4792 86.099 19.8406 86.3834 19.4105 86.9538C18.9805 87.5241 18.7659 88.3684 18.7659 89.4896ZM37.2775 89.4896C37.2775 91.1504 36.8655 92.4276 36.0422 93.3199C35.219 94.2122 34.0385 94.6588 32.5008 94.6588C30.9631 94.6588 29.7826 94.2122 28.9594 93.3199C28.1354 92.4276 27.7241 91.1466 27.7241 89.4761C27.7241 87.8056 28.1369 86.5305 28.9631 85.6495C29.7894 84.7685 30.9729 84.3279 32.5151 84.3279C34.0572 84.3279 35.2362 84.7722 36.0535 85.6592C36.8685 86.547 37.2775 87.8243 37.2775 89.4896ZM29.9537 89.4896C29.9537 90.6108 30.1661 91.455 30.5924 92.0224C31.0179 92.5897 31.6535 92.8734 32.5 92.8734C34.1976 92.8734 35.0464 91.7455 35.0464 89.4896C35.0464 87.2292 34.2021 86.099 32.5136 86.099C31.667 86.099 31.0284 86.3834 30.5984 86.9538C30.1684 87.5241 29.9537 88.3684 29.9537 89.4896ZM43.2279 94.5207H41.1003V86.2566H38.3754V84.4855H45.9528V86.2566H43.2279V94.5207ZM53.4198 91.7342C53.4198 92.6408 53.0941 93.3545 52.442 93.876C51.7898 94.3976 50.8825 94.6588 49.7208 94.6588C48.6499 94.6588 47.7029 94.4569 46.8796 94.0546V92.0779C47.5565 92.3796 48.1299 92.5927 48.5989 92.7166C49.0679 92.8404 49.4964 92.9019 49.8859 92.9019C50.3527 92.9019 50.7107 92.8126 50.9598 92.6348C51.2097 92.4562 51.3343 92.1912 51.3343 91.8385C51.3343 91.6419 51.2795 91.467 51.17 91.3132C51.0604 91.1601 50.8991 91.0123 50.6859 90.8704C50.4728 90.7286 50.0398 90.502 49.3854 90.1913C48.7723 89.9031 48.3122 89.6262 48.006 89.3605C47.6991 89.0948 47.4544 88.7864 47.2713 88.4344C47.0882 88.0817 46.9967 87.6697 46.9967 87.1992C46.9967 86.3114 47.2976 85.6135 47.8995 85.1054C48.5013 84.5974 49.3328 84.3437 50.3947 84.3437C50.9163 84.3437 51.4139 84.4052 51.8874 84.5291C52.3609 84.6529 52.8563 84.8262 53.3733 85.0506L52.6866 86.7046C52.1516 86.4855 51.7088 86.3317 51.3583 86.2446C51.0079 86.1576 50.6642 86.114 50.3257 86.114C49.9227 86.114 49.6143 86.2078 49.3989 86.3954C49.1835 86.5831 49.0762 86.8277 49.0762 87.1301C49.0762 87.3178 49.1197 87.4814 49.2068 87.6209C49.2938 87.7605 49.4319 87.8956 49.6218 88.0262C49.8116 88.1568 50.2612 88.3909 50.9703 88.7301C51.9084 89.1789 52.5516 89.6284 52.899 90.0787C53.2465 90.529 53.4198 91.0798 53.4198 91.7342ZM59.1106 94.5207H56.983V86.2566H54.2581V84.4855H61.8355V86.2566H59.1106V94.5207ZM65.5075 90.6701V94.5207H63.3799V84.4855H66.3037C67.6673 84.4855 68.6759 84.7339 69.3303 85.23C69.9847 85.7268 70.3119 86.481 70.3119 87.4919C70.3119 88.0825 70.1498 88.6071 69.8249 89.0671C69.4999 89.5271 69.0399 89.8873 68.4455 90.1477C69.9555 92.4036 70.9393 93.861 71.3971 94.5199H69.0362L66.6407 90.6693H65.5075V90.6701ZM65.5075 88.9403H66.1942C66.8666 88.9403 67.3634 88.8284 67.6838 88.604C68.0043 88.3797 68.1641 88.0269 68.1641 87.5467C68.1641 87.0709 68.0005 86.7324 67.6733 86.5305C67.3461 86.3294 66.8396 86.2288 66.1529 86.2288H65.5075V88.9403ZM78.8026 94.5207L78.0747 92.132H74.4162L73.6882 94.5207H71.3956L74.937 84.445H77.5381L81.0938 94.5207H78.8026ZM77.5666 90.3474C76.8942 88.183 76.5152 86.959 76.4304 86.6754C76.3456 86.3917 76.2856 86.1673 76.2488 86.003C76.098 86.5883 75.6657 88.0367 74.9513 90.3474H77.5666ZM89.2903 87.6157C89.2903 88.6956 88.9526 89.5219 88.2779 90.093C87.6033 90.6656 86.6434 90.9515 85.3984 90.9515H84.4858V94.5207H82.3583V84.4855H85.5635C86.7808 84.4855 87.7061 84.7474 88.3402 85.2713C88.9736 85.7958 89.2903 86.5771 89.2903 87.6157ZM84.4858 89.2082H85.186C85.8404 89.2082 86.3297 89.0791 86.6547 88.8202C86.9796 88.5613 87.1417 88.1853 87.1417 87.6915C87.1417 87.1924 87.0051 86.824 86.7335 86.5861C86.4611 86.3482 86.034 86.2288 85.4532 86.2288H84.4851L84.4858 89.2082ZM55.8814 42.5897C54.3932 42.0996 52.2506 42.0201 49.4537 42.0201H39.408V57.0292H50.2327C52.1103 57.0292 53.4289 56.8424 54.1883 56.7013C55.5264 56.4626 56.6453 56.0034 57.5444 55.4435C58.4434 54.8852 59.1826 54.0409 59.762 52.9723C60.3406 51.9036 60.631 50.6556 60.631 49.2567C60.631 47.6177 60.2115 46.2699 59.3725 45.0617C58.5342 43.8527 57.3703 43.079 55.8814 42.5897ZM54.3384 36.1267C55.8168 35.6869 56.9312 34.8914 57.6795 33.8731C58.4292 32.8547 58.8036 31.5444 58.8036 30.0052C58.8036 28.5471 58.4539 27.2473 57.7545 26.1373C57.0551 25.0282 56.0562 24.2755 54.7587 23.8657C53.4589 23.4575 51.2315 23.2586 48.0751 23.2586H39.408V36.7668H48.794C51.3718 36.7668 53.2195 36.4674 54.3384 36.1267ZM88.1879 12.0963C88.1879 6.24117 83.4412 1.49527 77.5861 1.49527H19.2409C13.3859 1.49527 8.63921 6.24117 8.63921 12.0963V70.4429C8.63921 76.298 13.3859 81.0439 19.2409 81.0439H77.5861C83.4412 81.0439 88.1879 76.298 88.1879 70.4429V12.0963ZM65.3514 54.9805C64.4831 56.7486 63.4085 58.1121 62.1304 59.0712C60.8516 60.0296 59.2479 60.9069 57.32 61.3962C55.3921 61.8862 53.0296 62.2825 50.2327 62.2825H33.4044V18.0054H49.9632C53.32 18.0054 56.0112 18.4707 58.0389 19.3592C60.0674 20.2485 61.6546 21.6263 62.8051 23.474C63.9533 25.3223 64.5281 27.2608 64.5281 29.2788C64.5281 31.1564 64.0178 32.9267 63.0002 34.5853C61.9811 36.2438 60.4426 37.5833 58.3849 38.6017C61.0415 39.3807 63.085 40.7113 64.5131 42.5889C65.9413 44.4673 66.6557 46.6849 66.6557 49.2425C66.6549 51.3002 66.2212 53.2132 65.3514 54.9805Z" fill="#5B4282"/>
</svg>
