<svg width="123" height="126" viewBox="0 0 123 126" fill="none" xmlns="http://www.w3.org/2000/svg">
<path d="M16.2941 117.867C14.2335 117.867 13.6342 116.64 13.6342 114.803C13.6342 114.19 13.7097 113.499 13.8024 112.771C14.2535 109.593 15.3555 107.775 18.0155 107.775C19.8142 107.775 20.6916 108.598 20.6916 110.091V110.819H22.4761C22.4961 110.819 22.4961 110.149 22.4961 109.997C22.4961 107.814 21.203 105.744 18.0183 105.744C13.6906 105.744 11.9109 108.147 11.2553 112.858C11.1616 113.491 11.1052 114.081 11.1052 114.711C11.1052 117.487 12.1738 120.013 15.995 120.013C18.8986 120.013 20.6228 118.566 21.634 116.785L19.9289 115.612C18.824 117.393 17.6246 117.867 16.2941 117.867ZM28.0033 109.096C24.5367 109.096 23.039 110.914 22.5334 114.533C22.4761 114.956 22.4388 115.396 22.4388 115.797C22.4388 118.133 23.5064 119.992 26.4655 119.992C29.932 119.992 31.4498 118.095 31.9554 114.533C32.0118 114.074 32.0491 113.653 32.0491 113.232C32.05 110.857 30.9452 109.096 28.0033 109.096ZM29.4456 114.534C29.0709 117.158 28.2661 117.962 26.7474 117.962C25.5307 117.962 24.9314 117.445 24.9314 115.894C24.9314 115.511 24.9697 115.052 25.0442 114.534C25.4189 111.93 26.1682 111.126 27.7041 111.126C28.9409 111.126 29.5583 111.643 29.5583 113.213C29.5583 113.596 29.5201 114.037 29.4456 114.534ZM40.7629 105.934L40.1827 109.45C40.1454 109.755 40.1646 109.654 40.2773 109.941C39.7345 109.52 38.7596 109.241 38.1039 109.241C34.9938 109.241 33.2524 110.681 32.6904 114.702C32.6159 115.181 32.5967 115.584 32.5967 115.986C32.5967 118.917 34.2827 120.009 36.5489 120.009C37.5056 120.009 38.4413 120.03 39.1715 119.399L39.3579 120.589H41.1566L43.2546 105.934H40.7629ZM38.9832 117.406C38.1412 117.922 37.3173 118.039 36.8117 118.039C35.444 118.039 35.0693 117.311 35.0693 116.143C35.0693 115.702 35.1257 115.187 35.2012 114.63C35.6313 111.585 36.5871 111.048 37.8239 111.048C38.6286 111.048 39.2461 111.183 39.8281 111.509L38.9832 117.406ZM48.7254 109.096C45.2961 109.096 43.6866 110.761 43.1427 114.533C43.0854 114.993 43.0481 115.434 43.0481 115.855C43.0481 118.44 44.3413 119.992 47.1876 119.992C49.3983 119.992 51.0479 119.053 51.9282 117.329L50.0358 116.544C49.4929 117.386 48.7627 117.96 47.4695 117.96C46.0837 117.96 45.5217 117.579 45.5217 116.315C45.5217 116.066 45.5408 115.703 45.5781 115.703H52.3401C52.4348 114.726 52.5456 114.036 52.5456 113.463C52.5456 111.549 51.8345 109.096 48.7254 109.096ZM50.0176 113.75H45.8963C46.3092 112.773 47.0012 111.261 48.4253 111.261C49.5302 111.261 50.074 111.921 50.074 113.051C50.0731 113.242 50.0559 113.75 50.0176 113.75ZM59.755 108.865L59.9796 106.911H54.6961L54.4725 108.865H55.8584L54.3607 118.635H52.9729L52.7492 120.589H58.0318L58.2573 118.635H56.8705L58.3682 108.865H59.755ZM70.4903 111.796L71.1651 109.842H69.3481L68.0378 110.119C67.3066 109.641 66.3136 109.283 65.3779 109.283C62.6979 109.283 60.4136 110.605 60.4136 113.613C60.4136 114.456 60.7127 115.137 61.0683 115.597C60.5072 115.903 60.0198 116.415 60.0198 117.105C60.0198 117.411 60.1316 117.725 60.3572 118.011C59.2322 118.702 58.5412 119.846 58.5412 121.185C58.5412 123.772 61.182 124.324 63.2054 124.324C65.7525 124.324 68.7881 123.729 68.7881 120.416C68.7881 119.286 68.0951 118.404 66.0909 118.021L62.4752 117.33C62.0632 117.253 61.9696 117.119 61.9696 116.928C61.9696 116.64 62.1397 116.488 62.4197 116.488L62.6635 116.526C63.1509 116.64 63.7129 116.699 64.2931 116.699C66.8975 116.699 69.2201 115.549 69.2201 112.562C69.2201 112.14 69.1455 111.855 68.9582 111.395C69.2765 111.548 69.6894 111.797 69.8566 111.797L70.4903 111.796ZM65.3396 119.723C66.0507 119.858 66.2935 120.125 66.2935 120.604C66.2935 122.156 64.6639 122.347 63.4845 122.347C61.6857 122.347 61.0119 121.907 61.0119 120.929C61.0119 120.068 61.2546 119.666 61.8176 119.053L65.3396 119.723ZM64.5702 114.707C63.4835 114.707 62.8842 114.305 62.8842 113.347C62.8842 111.93 63.69 111.107 65.0949 111.107C66.2189 111.107 66.7628 111.585 66.7628 112.522C66.7628 113.94 65.9752 114.707 64.5702 114.707ZM77.1453 109.096C76.0959 109.096 75.1602 109.623 73.998 110.559L73.8298 109.842H71.7682L70.3259 120.589H72.8176L73.9043 112.439C74.6355 111.98 75.5339 111.313 76.3023 111.313C77.238 111.313 77.5764 111.775 77.5764 112.655C77.5764 112.866 77.5563 113.491 77.519 113.72L76.6025 120.589H79.0942L80.0107 113.664C80.049 113.34 80.0863 112.807 80.0863 112.501C80.0872 110.68 79.2433 109.096 77.1453 109.096ZM84.8192 117.897L84.8383 117.634L85.9241 109.842H81.7837L81.5228 111.796H83.3387C83.1887 111.796 83.095 111.967 83.0769 112.122L82.3275 117.311C82.2903 117.561 82.2721 118.081 82.2721 118.29C82.2721 119.63 82.9832 120.589 84.4436 120.589H85.7177L85.9987 118.635H85.1939C84.9119 118.635 84.8192 118.126 84.8192 117.897ZM86.4297 105.934H83.9944C83.8444 105.934 83.8444 105.371 83.8262 105.562L83.4878 108.315C83.4687 108.488 83.4687 108.865 83.6188 108.865H86.0551C86.2051 108.865 86.2051 108.196 86.2233 108.022L86.5616 105.897C86.5807 105.706 86.5807 105.934 86.4297 105.934ZM91.5106 117.962C90.8932 117.962 90.5931 117.694 90.5931 117.12L90.6122 117.081L91.3988 111.796H94.246L95.1072 109.842H91.6607L92.2408 105.543L89.6191 106.399L89.1498 109.842H87.633L87.3712 111.796H89.1317C88.9635 112.773 88.7943 112.139 88.7761 112.332L88.1014 116.966C88.0641 117.177 88.0641 117.33 88.0641 117.521C88.0641 119.34 89.3754 120.021 90.9505 120.021C92.4109 120.021 93.5913 119.585 94.5098 118.799L93.3476 117.337C92.7655 117.7 92.3727 117.962 91.5106 117.962ZM100.653 109.096C97.2242 109.096 95.6137 110.761 95.0699 114.533C95.0135 114.993 94.9762 115.434 94.9762 115.855C94.9762 118.44 96.2684 119.992 99.1157 119.992C101.326 119.992 102.976 119.053 103.855 117.329L101.964 116.544C101.421 117.386 100.69 117.96 99.3967 117.96C98.0118 117.96 97.4488 117.579 97.4488 116.315C97.4488 116.066 97.4689 115.703 97.5062 115.703H104.268C104.362 114.726 104.475 114.036 104.475 113.463C104.475 111.549 103.763 109.096 100.653 109.096ZM101.946 113.75H97.8244C98.2364 112.773 98.9284 111.261 100.353 111.261C101.458 111.261 102.002 111.921 102.002 113.051C102.001 113.242 101.983 113.75 101.946 113.75ZM111.369 109.096C110.469 109.096 109.626 109.623 108.783 110.444L108.633 109.842H106.574L105.13 120.589H107.641L108.746 112.267C109.402 111.866 110.151 111.523 110.863 111.523C111.313 111.523 111.743 111.45 112.155 111.507L112.475 109.286C112.099 109.21 111.724 109.096 111.369 109.096ZM47.7496 98.2364C42.079 95.7314 36.7725 89.3632 36.7601 82.8475C36.7448 75.7436 41.149 69.7125 46.6265 65.7488C45.968 68.292 45.6086 70.6182 47.2401 72.8927C48.757 75.0079 51.413 76.0358 53.921 75.4779C59.7818 74.1667 60.0504 67.5807 56.5761 63.744C53.1411 59.9444 49.8179 55.6524 51.1254 50.142C51.7801 47.38 53.4393 44.7929 55.541 42.9434C53.9258 47.2833 58.5164 51.5636 61.5414 53.6954C66.7886 57.3944 72.5452 60.1896 77.3699 64.5256C82.4451 69.0824 86.1927 75.2444 85.4357 82.3903C84.6157 90.136 78.5943 95.5233 71.8408 98.2433C86.1124 95.023 100.859 83.7004 101.161 67.5201C101.411 54.2093 92.4788 43.9653 81.4129 38.1003L80.8346 37.7779C81.1386 38.5312 81.238 39.1721 81.2265 39.7456C81.3259 39.3226 81.3928 38.8878 81.4119 38.4393C81.4071 38.9972 81.3374 39.5238 81.2093 40.0182L81.2265 39.7456C81.0602 40.4637 80.7811 41.131 80.4074 41.7416L80.5699 41.5629C78.362 45.3058 72.3856 46.1187 69.4332 42.2429C64.6868 36.0085 69.5326 29.2867 70.2102 22.685C71.059 14.4107 65.9829 6.37868 59.6891 1.57178C63.1557 7.30391 58.589 14.8875 54.9351 19.1267C51.392 23.237 47.0834 26.6683 43.1724 30.4024C38.9708 34.4131 34.9317 38.6377 31.4785 43.3449C24.5721 52.7663 20.3437 64.6155 23.4509 76.3699C26.5563 88.1155 36.5097 95.5926 47.7496 98.2364Z" fill="#EE4323"/>
</svg>
