<svg width="84" height="126" viewBox="0 0 84 126" fill="none" xmlns="http://www.w3.org/2000/svg">
<path d="M62.5652 84.1604C73.9419 84.1604 83.1645 74.8287 83.1645 63.3175C83.1645 51.8062 73.9419 42.4745 62.5652 42.4745C51.1885 42.4745 41.9659 51.8062 41.9659 63.3175C41.9659 74.8287 51.1885 84.1604 62.5652 84.1604Z" fill="#19BCFE"/>
<path fill-rule="evenodd" clip-rule="evenodd" d="M21.3666 125.846C32.7433 125.846 41.9659 116.515 41.9659 105.003C41.9659 101.861 41.9659 94.9134 41.9659 84.1605C32.7119 84.1605 25.8454 84.1605 21.3666 84.1605C9.98988 84.1605 0.767242 93.4922 0.767242 105.003C0.767242 116.515 9.98988 125.846 21.3666 125.846Z" fill="#09CF83"/>
<path fill-rule="evenodd" clip-rule="evenodd" d="M21.3666 84.1604H41.9659V42.4745C32.0253 42.4745 25.1588 42.4745 21.3666 42.4745C9.98988 42.4745 0.767242 51.8062 0.767242 63.3175C0.767242 74.8287 9.98988 84.1604 21.3666 84.1604Z" fill="#A259FF"/>
<path fill-rule="evenodd" clip-rule="evenodd" d="M21.3666 42.4746H41.9659V0.788696C32.0253 0.788696 25.1588 0.788696 21.3666 0.788696C9.98988 0.788696 0.767242 10.1204 0.767242 21.6316C0.767242 33.1429 9.98988 42.4746 21.3666 42.4746Z" fill="#F24E1E"/>
<path fill-rule="evenodd" clip-rule="evenodd" d="M62.5652 42.4746H41.9659V0.788696H62.5652C73.9419 0.788696 83.1645 10.1204 83.1645 21.6316C83.1645 33.1429 73.9419 42.4746 62.5652 42.4746Z" fill="#FF7262"/>
</svg>
