<svg width="38" height="38" viewBox="0 0 38 38" fill="none" xmlns="http://www.w3.org/2000/svg">
<g clip-path="url(#clip0_17_220)">
<path d="M18.9999 1.58333C14.4296 1.53689 10.0278 3.30696 6.76191 6.50453C3.49606 9.7021 1.63338 14.0655 1.58325 18.6358C1.60086 22.2477 2.76275 25.761 4.90202 28.6712C7.04129 31.5814 10.0479 33.7388 13.4899 34.8333C14.3608 34.9917 14.6774 34.4692 14.6774 34.01C14.6774 33.5508 14.6774 32.5375 14.6774 31.1125C9.83242 32.1417 8.80325 28.8325 8.80325 28.8325C8.48072 27.7937 7.79504 26.9057 6.87159 26.3308C5.28825 25.2858 6.99825 25.3017 6.99825 25.3017C7.54553 25.3748 8.06915 25.571 8.52983 25.8753C8.9905 26.1797 9.37629 26.5844 9.65825 27.0592C10.1496 27.9112 10.9558 28.5362 11.9034 28.7998C12.851 29.0633 13.8642 28.9443 14.7249 28.4683C14.8134 27.6013 15.2061 26.7936 15.8333 26.1883C11.9699 25.7608 7.91658 24.3042 7.91658 17.765C7.88204 16.0592 8.5123 14.4069 9.67409 13.1575C9.14498 11.693 9.20745 10.08 9.84825 8.66083C9.84825 8.66083 11.3208 8.20167 14.5983 10.4025C17.4513 9.64225 20.4536 9.64225 23.3066 10.4025C26.6316 8.20167 28.0566 8.66083 28.0566 8.66083C28.6974 10.08 28.7599 11.693 28.2308 13.1575C29.4195 14.384 30.084 16.0253 30.0833 17.7333C30.0833 24.2883 25.9983 25.7292 22.1666 26.1567C22.5861 26.564 22.9102 27.0593 23.1156 27.6068C23.3209 28.1543 23.4023 28.7406 23.3541 29.3233V33.9942C23.3541 33.9942 23.6708 34.9917 24.5416 34.8175C27.9739 33.7161 30.9703 31.5583 33.103 28.6522C35.2356 25.7461 36.3954 22.2404 36.4166 18.6358C36.3665 14.0655 34.5038 9.7021 31.2379 6.50453C27.9721 3.30696 23.5703 1.53689 18.9999 1.58333Z" fill="#231F20"/>
</g>
<defs>
<clipPath id="clip0_17_220">
<rect width="38" height="38" fill="white"/>
</clipPath>
</defs>
</svg>
