<svg width="20" height="20" viewBox="0 0 20 20" fill="none" xmlns="http://www.w3.org/2000/svg">
<path d="M14.2952 0C13.8565 0.0243738 13.4178 0.0731214 13.0034 0.219364C12.3453 0.463102 11.7116 0.828709 11.1754 1.36493C11.0211 1.46274 10.8908 1.59397 10.794 1.74894C10.6973 1.9039 10.6367 2.07863 10.6166 2.2602C10.5965 2.44176 10.6175 2.62552 10.678 2.79789C10.7385 2.97025 10.837 3.12681 10.9661 3.25598C11.0953 3.38515 11.2519 3.48363 11.4242 3.54413C11.5966 3.60464 11.7803 3.62562 11.9619 3.60553C12.1435 3.58544 12.3182 3.52479 12.4732 3.42806C12.6281 3.33134 12.7594 3.20101 12.8572 3.04672C13.1253 2.77861 13.4421 2.63237 13.7834 2.5105C14.6365 2.21802 15.6845 2.33988 16.367 3.04672C17.3176 3.9973 17.3176 5.5816 16.367 6.55655L12.7109 10.2126C11.6385 11.2851 10.761 11.3826 10.1273 11.3582C9.49359 11.3338 9.12798 11.0413 9.12798 11.0413C8.98715 10.9613 8.83193 10.9098 8.67119 10.8898C8.51046 10.8697 8.34735 10.8816 8.19118 10.9246C8.03501 10.9676 7.88884 11.0409 7.76101 11.1404C7.63319 11.2399 7.52621 11.3636 7.44619 11.5044C7.36617 11.6453 7.31468 11.8005 7.29464 11.9612C7.27461 12.122 7.28643 12.2851 7.32943 12.4412C7.37244 12.5974 7.44578 12.7436 7.54527 12.8714C7.64476 12.9992 7.76846 13.1062 7.90929 13.1862C7.90929 13.1862 8.738 13.7224 9.95669 13.7956C11.1754 13.8687 12.8815 13.4056 14.3683 11.8944L18.0244 8.23834C19.9256 6.33719 19.9256 3.26609 18.0244 1.38931C17.342 0.70684 16.5376 0.292486 15.6602 0.0974952C15.2214 0 14.734 0 14.2952 0.0243738V0ZM9.42047 5.63035C8.20178 5.5816 6.51999 5.99595 5.08193 7.45838L1.42587 11.1144C-0.475289 13.0156 -0.475289 16.0867 1.42587 17.9635C2.7908 19.3284 4.7407 19.7184 6.44687 19.1091C7.10496 18.8653 7.73868 18.4997 8.2749 17.9635C8.42919 17.8657 8.55951 17.7344 8.65624 17.5795C8.75296 17.4245 8.81362 17.2498 8.83371 17.0682C8.8538 16.8867 8.83282 16.7029 8.77231 16.5305C8.7118 16.3582 8.61332 16.2016 8.48415 16.0724C8.35498 15.9433 8.19843 15.8448 8.02607 15.7843C7.8537 15.7238 7.66994 15.7028 7.48838 15.7229C7.30681 15.743 7.13208 15.8036 6.97712 15.9004C6.82215 15.9971 6.69091 16.1274 6.59311 16.2817C6.325 16.5498 6.00814 16.696 5.66691 16.8179C4.81382 17.1104 3.76575 16.9885 3.08328 16.2817C2.13271 15.3311 2.13271 13.7468 3.08328 12.7719L6.73935 9.1158C7.7143 8.14085 8.56739 8.01898 9.24985 8.04335C9.93232 8.06773 10.3954 8.26272 10.3954 8.26272C10.5382 8.36982 10.7028 8.44424 10.8776 8.48073C11.0523 8.51721 11.2329 8.51486 11.4066 8.47385C11.5804 8.43284 11.743 8.35417 11.8829 8.24339C12.0229 8.13261 12.1368 7.99244 12.2167 7.83278C12.2965 7.67312 12.3403 7.49787 12.3449 7.31943C12.3496 7.14098 12.3149 6.9637 12.2435 6.80011C12.1721 6.63652 12.0656 6.49062 11.9316 6.37272C11.7975 6.25482 11.6392 6.1678 11.4679 6.11782C11.4679 6.11782 10.6392 5.63035 9.42047 5.5816V5.63035Z" fill="white"/>
</svg>
