<svg width="38" height="38" viewBox="0 0 38 38" fill="none" xmlns="http://www.w3.org/2000/svg">
<g clip-path="url(#clip0_17_214)">
<path d="M37.819 18.9095C37.819 8.46607 29.3529 0 18.9095 0C8.46607 0 0 8.46607 0 18.9095C0 29.3529 8.46607 37.819 18.9095 37.819C29.3529 37.819 37.819 29.3529 37.819 18.9095Z" fill="url(#paint0_linear_17_214)"/>
<path d="M15.7623 18.9579C15.7623 17.2159 17.1737 15.8033 18.9153 15.8033C20.6568 15.8033 22.069 17.2159 22.069 18.9579C22.069 20.7 20.6568 22.1125 18.9153 22.1125C17.1737 22.1125 15.7623 20.7 15.7623 18.9579ZM14.0575 18.9579C14.0575 21.6417 16.2323 23.8171 18.9153 23.8171C21.5982 23.8171 23.7731 21.6417 23.7731 18.9579C23.7731 16.2742 21.5982 14.0987 18.9153 14.0987C16.2323 14.0987 14.0575 16.2742 14.0575 18.9579ZM22.8301 13.906C22.83 14.1306 22.8965 14.3502 23.0212 14.537C23.1459 14.7238 23.3231 14.8694 23.5305 14.9554C23.7379 15.0415 23.9662 15.0641 24.1864 15.0203C24.4067 14.9766 24.609 14.8685 24.7678 14.7098C24.9267 14.551 25.0348 14.3487 25.0787 14.1285C25.1226 13.9082 25.1003 13.6799 25.0144 13.4723C24.9286 13.2648 24.7831 13.0874 24.5965 12.9625C24.4099 12.8377 24.1904 12.771 23.9658 12.7709H23.9654C23.6644 12.7711 23.3758 12.8907 23.163 13.1035C22.9501 13.3163 22.8304 13.605 22.8301 13.906ZM15.0932 26.6607C14.1709 26.6187 13.6696 26.465 13.3364 26.3352C12.8947 26.1632 12.5796 25.9583 12.2482 25.6273C11.9169 25.2963 11.7118 24.9814 11.5406 24.5396C11.4107 24.2065 11.2571 23.7049 11.2152 22.7822C11.1693 21.7847 11.1601 21.4851 11.1601 18.958C11.1601 16.4309 11.17 16.1321 11.2152 15.1337C11.2571 14.2111 11.412 13.7105 11.5406 13.3764C11.7126 12.9346 11.9174 12.6193 12.2482 12.2879C12.5791 11.9564 12.894 11.7513 13.3364 11.58C13.6694 11.4501 14.1709 11.2964 15.0932 11.2545C16.0905 11.2086 16.39 11.1995 18.9153 11.1995C21.4405 11.1995 21.7404 11.2094 22.7384 11.2545C23.6608 11.2965 24.1612 11.4513 24.4952 11.58C24.9369 11.7513 25.2521 11.9569 25.5834 12.2879C25.9148 12.6189 26.1191 12.9346 26.2911 13.3764C26.4209 13.7095 26.5746 14.2111 26.6165 15.1337C26.6624 16.1321 26.6715 16.4309 26.6715 18.958C26.6715 21.4851 26.6624 21.7839 26.6165 22.7822C26.5745 23.7049 26.4201 24.2063 26.2911 24.5396C26.1191 24.9814 25.9143 25.2966 25.5834 25.6273C25.2525 25.958 24.9369 26.1632 24.4952 26.3352C24.1622 26.4651 23.6608 26.6187 22.7384 26.6607C21.7412 26.7066 21.4416 26.7157 18.9153 26.7157C16.3889 26.7157 16.0902 26.7066 15.0932 26.6607ZM15.0149 9.55208C14.0078 9.59793 13.3196 9.75769 12.7186 9.9916C12.0962 10.2332 11.5693 10.5573 11.0427 11.0831C10.5162 11.609 10.1931 12.1369 9.95156 12.7594C9.7177 13.361 9.55801 14.049 9.51212 15.0564C9.46553 16.0654 9.45483 16.388 9.45483 18.9579C9.45483 21.5278 9.46553 21.8504 9.51212 22.8594C9.55801 23.8668 9.7177 24.5548 9.95156 25.1564C10.1931 25.7786 10.5163 26.3071 11.0427 26.8327C11.5692 27.3583 12.0962 27.682 12.7186 27.9242C13.3208 28.1582 14.0078 28.3179 15.0149 28.3638C16.0242 28.4096 16.3461 28.4211 18.9153 28.4211C21.4844 28.4211 21.8069 28.4104 22.8156 28.3638C23.8228 28.3179 24.5106 28.1582 25.1119 27.9242C25.734 27.682 26.2612 27.3586 26.7878 26.8327C27.3143 26.3069 27.6368 25.7786 27.879 25.1564C28.1128 24.5548 28.2733 23.8668 28.3184 22.8594C28.3643 21.8496 28.3749 21.5278 28.3749 18.9579C28.3749 16.388 28.3643 16.0654 28.3184 15.0564C28.2725 14.049 28.1128 13.3606 27.879 12.7594C27.6368 12.1372 27.3135 11.6098 26.7878 11.0831C26.2621 10.5564 25.734 10.2332 25.1127 9.9916C24.5106 9.75769 23.8227 9.59719 22.8164 9.55208C21.8076 9.50619 21.4852 9.49475 18.916 9.49475C16.3469 9.49475 16.0242 9.50541 15.0149 9.55208Z" fill="white"/>
</g>
<defs>
<linearGradient id="paint0_linear_17_214" x1="37.0921" y1="37.819" x2="-0.726881" y2="8.6651e-08" gradientUnits="userSpaceOnUse">
<stop stop-color="#FBE18A"/>
<stop offset="0.21" stop-color="#FCBB45"/>
<stop offset="0.38" stop-color="#F75274"/>
<stop offset="0.52" stop-color="#D53692"/>
<stop offset="0.74" stop-color="#8F39CE"/>
<stop offset="1" stop-color="#5B4FE9"/>
</linearGradient>
<clipPath id="clip0_17_214">
<rect width="38" height="38" fill="white"/>
</clipPath>
</defs>
</svg>
