<svg width="90" height="89" viewBox="0 0 90 89" fill="none" xmlns="http://www.w3.org/2000/svg">
<g clip-path="url(#clip0_58_65)">
<path d="M0.973999 0.048584H89.783V88.8576H0.973999V0.048584Z" fill="#F7DF1E"/>
<path d="M24.3251 74.2639L31.1214 70.1509C32.4326 72.4756 33.6253 74.4425 36.4862 74.4425C39.2286 74.4425 40.9575 73.3698 40.9575 69.1972V40.8206H49.3033V69.3151C49.3033 77.9592 44.2364 81.8938 36.844 81.8938C30.1676 81.8938 26.2922 78.436 24.325 74.2632" fill="black"/>
<path d="M53.8365 73.3696L60.632 69.4351C62.4208 72.3565 64.7458 74.5024 68.8589 74.5024C72.317 74.5024 74.5221 72.7735 74.5221 70.3889C74.5221 67.5274 72.2569 66.5139 68.4415 64.8452L66.3556 63.9504C60.3342 61.3875 56.3399 58.1683 56.3399 51.3722C56.3399 45.1127 61.109 40.3434 68.5611 40.3434C73.8668 40.3434 77.682 42.1916 80.424 47.0204L73.926 51.1932C72.4952 48.63 70.9457 47.6167 68.5612 47.6167C66.117 47.6167 64.5669 49.1666 64.5669 51.1932C64.5669 53.697 66.117 54.7107 69.6934 56.2608L71.7798 57.1549C78.8739 60.1954 82.8682 63.295 82.8682 70.2696C82.8682 77.7815 76.9665 81.8945 69.038 81.8945C61.2882 81.8945 56.2803 78.1986 53.8365 73.3696Z" fill="black"/>
</g>
<defs>
<clipPath id="clip0_58_65">
<rect width="88.809" height="88.809" fill="white" transform="translate(0.973999 0.048584)"/>
</clipPath>
</defs>
</svg>
