<svg width="105" height="108" viewBox="0 0 105 108" fill="none" xmlns="http://www.w3.org/2000/svg">
<g clip-path="url(#clip0_58_48)">
<path d="M104.56 24.4338C104.599 24.5773 104.619 24.7253 104.619 24.8739V47.9811C104.619 48.5847 104.297 49.1423 103.776 49.4426L84.4475 60.6087V82.7407C84.4475 83.343 84.1285 83.899 83.608 84.2023L43.2624 107.507C43.17 107.56 43.0693 107.594 42.9686 107.629C42.9308 107.642 42.8951 107.665 42.8552 107.676C42.5732 107.75 42.2767 107.75 41.9947 107.676C41.9485 107.663 41.9066 107.638 41.8625 107.621C41.7701 107.587 41.6736 107.558 41.5854 107.507L1.24827 84.2023C0.7267 83.9016 0.404541 83.3443 0.404541 82.7407V13.4194C0.404541 13.2677 0.425529 13.1203 0.463308 12.9771C0.475901 12.9287 0.505284 12.8845 0.522075 12.836C0.553557 12.7476 0.582941 12.657 0.629115 12.5749C0.660597 12.5201 0.706771 12.4759 0.744549 12.4253C0.792822 12.3579 0.836897 12.2885 0.893566 12.2295C0.941838 12.181 1.0048 12.1452 1.05937 12.1031C1.12024 12.0526 1.17481 11.9978 1.24407 11.9578H1.24617L21.4158 0.305272C21.9355 0.00517633 22.5751 0.00517633 23.0949 0.305272L43.2645 11.9578H43.2687C43.3359 11.9999 43.3925 12.0526 43.4534 12.101C43.508 12.1431 43.5688 12.181 43.6171 12.2274C43.6759 12.2885 43.7178 12.3579 43.7682 12.4253C43.8039 12.4759 43.8522 12.5201 43.8815 12.5749C43.9298 12.6591 43.9571 12.7476 43.9907 12.836C44.0075 12.8845 44.0369 12.9287 44.0495 12.9792C44.0881 13.1227 44.1079 13.2707 44.1082 13.4194V56.7168L60.9156 47.006V24.8718C60.9156 24.7244 60.9365 24.5749 60.9743 24.4338C60.989 24.3832 61.0163 24.339 61.0331 24.2906C61.0667 24.2021 61.0961 24.1116 61.1422 24.0294C61.1737 23.9747 61.2199 23.9305 61.2556 23.8799C61.3059 23.8125 61.3479 23.743 61.4067 23.6841C61.4549 23.6356 61.5158 23.5998 61.5704 23.5577C61.6334 23.5072 61.6879 23.4524 61.7551 23.4124H61.7572L81.9289 11.7598C82.4485 11.4593 83.0884 11.4593 83.608 11.7598L103.778 23.4124C103.849 23.4545 103.904 23.5072 103.966 23.5556C104.019 23.5977 104.08 23.6356 104.128 23.6819C104.187 23.743 104.229 23.8125 104.279 23.8799C104.317 23.9305 104.363 23.9747 104.393 24.0294C104.441 24.1116 104.468 24.2021 104.502 24.2906C104.521 24.339 104.548 24.3832 104.56 24.4338ZM101.257 47.006V27.7908L94.1986 31.868L84.4475 37.5016V56.7168L101.259 47.006H101.257ZM81.0873 81.7656V62.5378L71.4957 68.0345L44.1061 83.72V103.129L81.0873 81.7656ZM3.76685 16.3362V81.7656L40.7438 103.127V83.7221L21.4263 72.7519L21.42 72.7477L21.4116 72.7435C21.3465 72.7056 21.292 72.6508 21.2311 72.6045C21.1786 72.5624 21.1178 72.5287 21.0716 72.4823L21.0674 72.476C21.0128 72.4234 20.9751 72.3581 20.9289 72.2991C20.8869 72.2423 20.8365 72.1938 20.8029 72.1349L20.8008 72.1285C20.7631 72.0654 20.74 71.9895 20.7127 71.9179C20.6854 71.8548 20.6497 71.7958 20.6329 71.7284V71.7263C20.612 71.6463 20.6078 71.562 20.5994 71.4799C20.591 71.4167 20.5742 71.3535 20.5742 71.2903V71.2861V26.047L10.8252 20.4113L3.76685 16.3383V16.3362ZM22.2574 3.71279L5.4522 13.4194L22.2532 23.126L39.0564 13.4173L22.2532 3.71279H22.2574ZM30.9969 64.29L40.7459 58.6585V16.3362L33.6876 20.4134L23.9365 26.047V68.3693L30.9969 64.29ZM82.7684 15.1674L65.9653 24.8739L82.7684 34.5805L99.5695 24.8718L82.7684 15.1674ZM81.0873 37.5016L71.3362 31.868L64.2779 27.7908V47.006L74.0269 52.6374L81.0873 56.7168V37.5016ZM42.4229 80.8032L67.0693 66.6845L79.3893 59.6294L62.5988 49.9291L43.2666 61.0973L25.647 71.2756L42.4229 80.8032Z" fill="#FF2D20"/>
</g>
<defs>
<clipPath id="clip0_58_48">
<rect width="104.215" height="107.84" fill="white" transform="translate(0.404541 0.0802002)"/>
</clipPath>
</defs>
</svg>
