<svg width="38" height="38" viewBox="0 0 38 38" fill="none" xmlns="http://www.w3.org/2000/svg">
<g clip-path="url(#clip0_17_217)">
<path d="M19 38C29.4934 38 38 29.4934 38 19C38 8.50659 29.4934 0 19 0C8.50659 0 0 8.50659 0 19C0 29.4934 8.50659 38 19 38Z" fill="#0A66C2"/>
<path d="M25.7205 25.7242H22.9002V21.3082C22.9002 20.2543 22.8779 18.8998 21.4307 18.8998C19.9611 18.8998 19.7348 20.0465 19.7348 21.2303V25.7242H16.9145V16.6398H19.6234V17.8793H19.6605C20.0391 17.1668 20.9594 16.4135 22.3324 16.4135C25.1898 16.4135 25.7168 18.2949 25.7168 20.7404L25.7205 25.7242ZM13.7342 15.3967C12.825 15.3967 12.0977 14.6619 12.0977 13.7602C12.0977 12.8584 12.8287 12.1236 13.7342 12.1236C14.6396 12.1236 15.3707 12.8584 15.3707 13.7602C15.3707 14.6619 14.6359 15.3967 13.7342 15.3967ZM15.148 25.7242H12.3203V16.6398H15.148V25.7242ZM27.1307 9.5H10.9064C10.1309 9.5 9.5 10.1123 9.5 10.873V27.1641C9.5 27.9211 10.1271 28.5371 10.9064 28.5371H27.127C27.9025 28.5371 28.5371 27.9248 28.5371 27.1641V10.873C28.5371 10.1123 27.9025 9.5 27.1307 9.5Z" fill="white"/>
</g>
<defs>
<clipPath id="clip0_17_217">
<rect width="38" height="38" fill="white"/>
</clipPath>
</defs>
</svg>
