<svg width="144" height="141" viewBox="0 0 144 141" fill="none" xmlns="http://www.w3.org/2000/svg">
<path d="M72 102.952C106.794 102.952 135 88.4228 135 70.5C135 52.5772 106.794 38.048 72 38.048C37.2061 38.048 9 52.5772 9 70.5C9 88.4228 37.2061 102.952 72 102.952Z" fill="url(#paint0_radial_58_163)"/>
<path d="M72 100.542C105.434 100.542 132.538 87.0916 132.538 70.5C132.538 53.9084 105.434 40.4582 72 40.4582C38.5655 40.4582 11.4615 53.9084 11.4615 70.5C11.4615 87.0916 38.5655 100.542 72 100.542Z" fill="#6280B6"/>
<path d="M84.2625 80.1938L87.264 65.0627C87.6916 63.7677 87.762 62.3851 87.468 61.0549C87.174 59.7248 86.5262 58.4943 85.59 57.4883C82.977 55.6715 79.7775 54.8492 76.59 55.1751H71.4015L72.891 47.6844C72.9182 47.545 72.9135 47.4013 72.8775 47.2638C72.8414 47.1263 72.7748 46.9983 72.6824 46.8888C72.59 46.7794 72.4741 46.6913 72.3429 46.6308C72.2117 46.5703 72.0685 46.5389 71.9235 46.5388H64.7235C64.4949 46.5388 64.2734 46.6165 64.0969 46.7588C63.9204 46.9011 63.7999 47.099 63.756 47.3187L60.5655 63.3839C60.32 61.6662 59.5748 60.054 58.419 58.7397C57.1322 57.4778 55.5797 56.5059 53.8699 55.8918C52.16 55.2777 50.334 55.0361 48.519 55.1839H34.65C34.4214 55.1838 34.1999 55.2616 34.0234 55.4039C33.8469 55.5461 33.7264 55.7441 33.6825 55.9638L27.2295 88.4819C27.2024 88.6214 27.207 88.765 27.2431 88.9025C27.2791 89.04 27.3457 89.1681 27.4381 89.2775C27.5305 89.3869 27.6465 89.475 27.7776 89.5355C27.9088 89.596 28.052 89.6275 28.197 89.6275H35.4105C35.6391 89.6276 35.8607 89.5498 36.0372 89.4076C36.2137 89.2653 36.3342 89.0673 36.378 88.8476L37.9395 80.9825H43.3395C45.7238 81.0448 48.1036 80.7476 50.3955 80.1012C52.328 79.4752 54.0952 78.4385 55.5705 77.0653C56.7795 75.9869 57.8116 74.7326 58.6305 73.3464L57.339 79.8457C57.3119 79.9851 57.3165 80.1288 57.3526 80.2663C57.3886 80.4038 57.4552 80.5318 57.5476 80.6413C57.64 80.7507 57.756 80.8388 57.8871 80.8993C58.0183 80.9598 58.1615 80.9912 58.3065 80.9913H65.5065C65.7351 80.9914 65.9567 80.9136 66.1332 80.7713C66.3097 80.629 66.4302 80.4311 66.474 80.2114L70.0155 62.3617H74.9385C77.0355 62.3617 77.6385 62.7714 77.8185 62.9477C77.9985 63.1239 78.2685 63.6747 77.931 65.4548L75.0735 79.8413C75.0464 79.9807 75.051 80.1244 75.0871 80.2619C75.1231 80.3994 75.1897 80.5274 75.2821 80.6368C75.3745 80.7463 75.4905 80.8344 75.6216 80.8949C75.7528 80.9554 75.896 80.9868 76.041 80.9869H83.331C83.5553 80.9783 83.7699 80.895 83.9393 80.7508C84.1087 80.6066 84.2227 80.4101 84.2625 80.1938ZM50.985 67.7064C50.7649 69.5563 49.8681 71.2656 48.4605 72.5181C46.6924 73.595 44.6191 74.0905 42.543 73.9325H39.339L41.6565 62.2515H45.801C48.8475 62.2515 50.0715 62.8904 50.5665 63.4236C50.9441 64.067 51.1768 64.782 51.249 65.5207C51.3212 66.2594 51.2312 67.0046 50.985 67.7064Z" fill="white"/>
<path d="M114.957 58.7441C113.67 57.4822 112.118 56.5103 110.408 55.8962C108.698 55.2821 106.872 55.0405 105.057 55.1883H91.1475C90.9189 55.1882 90.6974 55.266 90.5209 55.4083C90.3444 55.5505 90.2239 55.7485 90.18 55.9682L83.727 88.4863C83.6999 88.6258 83.7045 88.7694 83.7405 88.9069C83.7766 89.0445 83.8432 89.1725 83.9356 89.2819C84.028 89.3913 84.144 89.4794 84.2751 89.5399C84.4063 89.6004 84.5495 89.6319 84.6945 89.6319H91.9305C92.1591 89.632 92.3807 89.5542 92.5572 89.412C92.7337 89.2697 92.8542 89.0717 92.898 88.852L94.4595 80.9869H99.8595C102.244 81.0492 104.624 80.752 106.916 80.1056C108.848 79.4796 110.615 78.4429 112.091 77.0697C114.617 74.8401 116.32 71.8548 116.933 68.5789C117.417 66.903 117.49 65.1389 117.147 63.43C116.804 61.7211 116.053 60.1156 114.957 58.7441ZM107.456 67.7064C107.235 69.5563 106.339 71.2656 104.931 72.5181C103.159 73.5962 101.08 74.0903 99 73.9281H95.805L98.1225 62.2471H102.267C105.314 62.2471 106.538 62.886 107.033 63.4192C107.411 64.0628 107.645 64.7784 107.718 65.5179C107.791 66.2574 107.702 67.0037 107.456 67.7064Z" fill="white"/>
<path d="M45.801 61.2821C46.7719 61.1624 47.7574 61.2324 48.7006 61.4881C49.6437 61.7437 50.5257 62.1799 51.2955 62.7714C51.7923 63.5203 52.1091 64.3697 52.2221 65.2558C52.3351 66.1419 52.2414 67.0416 51.948 67.8871C51.6908 69.969 50.6629 71.8862 49.059 73.2759C47.1246 74.4959 44.838 75.068 42.543 74.9062H38.142L40.842 61.2953L45.801 61.2821ZM28.1745 88.6714H35.4105L37.125 80.0263H43.3215C45.6023 80.0872 47.8791 79.8034 50.0715 79.1847C51.8708 78.603 53.5155 77.6367 54.8865 76.3559C57.2596 74.2656 58.8579 71.464 59.4315 68.3894C59.8856 66.8605 59.9654 65.2483 59.6644 63.6835C59.3634 62.1187 58.6901 60.6454 57.699 59.383C56.504 58.2256 55.0655 57.3375 53.4839 56.7804C51.9023 56.2233 50.2156 56.0108 48.5415 56.1576H34.65L28.1745 88.6714Z" fill="#000004"/>
<path d="M64.7415 47.5082H71.9415L70.2 56.1532H76.5945C79.5314 55.8523 82.482 56.5831 84.9195 58.2154C85.7262 59.1133 86.2777 60.2031 86.5186 61.3755C86.7595 62.5479 86.6814 63.7617 86.292 64.8952L83.2905 80.0263H76.005L78.8625 65.6399C79.0615 65.0908 79.1325 64.505 79.0702 63.9256C79.0079 63.3461 78.8139 62.7877 78.5025 62.2912C77.4604 61.5602 76.1733 61.2451 74.9025 61.4099H69.165L65.466 80.0395H58.266L64.7415 47.5082Z" fill="#000004"/>
<path d="M102.272 61.2821C103.242 61.1624 104.228 61.2324 105.171 61.4881C106.114 61.7437 106.996 62.1799 107.766 62.7714C108.263 63.5203 108.58 64.3697 108.693 65.2558C108.806 66.1419 108.712 67.0416 108.419 67.8871C108.161 69.969 107.133 71.8862 105.53 73.2759C103.591 74.4987 101.3 75.0709 99 74.9062H94.599L97.299 61.2953L102.272 61.2821ZM84.645 88.6714H91.881L93.5955 80.0263H99.792C102.073 80.0872 104.35 79.8034 106.542 79.1847C108.341 78.603 109.986 77.6367 111.357 76.3559C113.73 74.2656 115.328 71.464 115.902 68.3894C116.356 66.8605 116.436 65.2483 116.135 63.6835C115.834 62.1187 115.161 60.6454 114.17 59.383C112.975 58.2256 111.536 57.3375 109.954 56.7804C108.373 56.2233 106.686 56.0108 105.012 56.1576H91.098L84.645 88.6714Z" fill="#000004"/>
<defs>
<radialGradient id="paint0_radial_58_163" cx="0" cy="0" r="1" gradientUnits="userSpaceOnUse" gradientTransform="translate(46.827 49.4602) scale(82.728 81.0045)">
<stop stop-color="white"/>
<stop offset="0.5" stop-color="#4C6B96"/>
<stop offset="1" stop-color="#231F20"/>
</radialGradient>
</defs>
</svg>
