<svg width="138" height="77" viewBox="0 0 138 77" fill="none" xmlns="http://www.w3.org/2000/svg">
<g clip-path="url(#clip0_58_139)">
<path d="M68.6249 0.435028C50.3797 0.435028 38.9765 8.87106 34.4153 25.7431C41.2572 17.3071 49.2394 14.1436 58.362 16.2526C63.5669 17.4559 67.2871 20.9477 71.405 24.8131C78.1131 31.1096 85.8769 38.3972 102.834 38.3972C121.08 38.3972 132.483 29.9612 137.044 13.0891C130.202 21.5251 122.22 24.6886 113.097 22.5796C107.892 21.3763 104.172 17.8845 100.054 14.0192C93.3463 7.72259 85.5824 0.435028 68.6249 0.435028ZM34.4153 38.3972C16.1701 38.3972 4.76694 46.8332 0.205658 63.7053C7.04758 55.2693 15.0298 52.1057 24.1524 54.2148C29.3573 55.4181 33.0775 58.9099 37.1954 62.7752C43.9035 69.0718 51.6673 76.3593 68.6249 76.3593C86.87 76.3593 98.2732 67.9233 102.834 51.0512C95.9926 59.4873 88.0103 62.6508 78.8877 60.5418C73.6828 59.3385 69.9626 55.8467 65.8448 51.9813C59.1366 45.6847 51.3728 38.3972 34.4153 38.3972Z" fill="url(#paint0_linear_58_139)"/>
</g>
<defs>
<linearGradient id="paint0_linear_58_139" x1="-972.868" y1="3741.99" x2="31957.5" y2="16093.3" gradientUnits="userSpaceOnUse">
<stop stop-color="#2298BD"/>
<stop offset="1" stop-color="#0ED7B5"/>
</linearGradient>
<clipPath id="clip0_58_139">
<rect width="136.838" height="76.122" fill="white" transform="translate(0.205658 0.435028)"/>
</clipPath>
</defs>
</svg>
