<svg width="386" height="555" viewBox="0 0 386 555" fill="none" xmlns="http://www.w3.org/2000/svg">
<path d="M163.5 186C195 138.5 280.2 45.2 369 52C457.8 58.8 160.667 389.5 1 554" stroke="#A10044"/>
<path d="M164 185.5C201 114.833 286.1 -20.4 330.5 4.00004C374.9 28.4 130 378.167 2 550" stroke="#3D0000"/>
<path d="M163.516 185.955C195.194 137.708 280.39 43.0554 367.758 50.4232C455.126 57.7909 159.677 389.106 1.03226 553.843" stroke="#9E0041"/>
<path d="M163.532 185.914C195.387 136.919 280.581 40.9137 366.516 48.8491C452.452 56.7846 158.688 388.715 1.06452 553.688" stroke="#9B003F"/>
<path d="M163.548 185.875C195.581 136.133 280.771 38.7747 365.274 47.2779C449.777 55.7811 157.699 388.326 1.09678 553.536" stroke="#97003D"/>
<path d="M163.565 185.838C195.774 135.349 280.961 36.6383 364.032 45.7093C447.103 54.7802 156.71 387.94 1.12903 553.387" stroke="#94003B"/>
<path d="M163.581 185.804C195.968 134.568 281.152 34.5044 362.79 44.1431C444.429 53.7818 155.72 387.557 1.16129 553.24" stroke="#910039"/>
<path d="M163.597 185.773C196.161 133.789 281.342 32.3726 361.548 42.5791C441.755 52.7855 154.731 387.176 1.19355 553.095" stroke="#8E0037"/>
<path d="M163.613 185.743C196.355 133.012 281.532 30.2432 360.306 41.0174C439.081 51.7916 153.742 386.797 1.22581 552.953" stroke="#8B0034"/>
<path d="M163.629 185.716C196.548 132.237 281.723 28.1159 359.065 39.4578C436.406 50.7998 152.753 386.42 1.25806 552.813" stroke="#870032"/>
<path d="M163.645 185.691C196.742 131.465 281.913 25.9906 357.823 37.9003C433.732 49.81 151.763 386.045 1.29032 552.674" stroke="#840030"/>
<path d="M163.661 185.667C196.935 130.694 282.103 23.8671 356.581 36.3445C431.058 48.8219 150.774 385.673 1.32258 552.538" stroke="#81002E"/>
<path d="M163.677 185.646C197.129 129.925 282.294 21.7456 355.339 34.7907C428.384 47.8359 149.785 385.301 1.35484 552.404" stroke="#7E002C"/>
<path d="M163.694 185.626C197.323 129.158 282.484 19.6258 354.097 33.2387C425.71 46.8516 148.796 384.932 1.3871 552.271" stroke="#7A0029"/>
<path d="M163.71 185.608C197.516 128.393 282.674 17.5076 352.855 31.6883C423.035 45.8689 147.806 384.565 1.41936 552.14" stroke="#770027"/>
<path d="M163.726 185.591C197.71 127.629 282.865 15.391 351.613 30.1394C420.361 44.8877 146.817 384.198 1.45161 552.01" stroke="#740025"/>
<path d="M163.742 185.576C197.903 126.866 283.055 13.276 350.371 28.5921C417.687 43.9082 145.828 383.834 1.48387 551.882" stroke="#710023"/>
<path d="M163.758 185.562C198.097 126.105 283.245 11.1624 349.129 27.0463C415.013 42.9302 144.839 383.471 1.51613 551.756" stroke="#6D0021"/>
<path d="M163.774 185.55C198.29 125.346 283.435 9.0503 347.887 25.5019C412.339 41.9535 143.849 383.109 1.54839 551.631" stroke="#6A001F"/>
<path d="M163.79 185.539C198.484 124.588 283.626 6.93939 346.645 23.9587C409.665 40.9781 142.86 382.749 1.58064 551.507" stroke="#67001C"/>
<path d="M163.806 185.53C198.677 123.831 283.816 4.8299 345.403 22.417C406.99 40.0041 141.871 382.39 1.6129 551.385" stroke="#64001A"/>
<path d="M163.823 185.522C198.871 123.075 284.006 2.72165 344.161 20.8765C404.316 39.0313 140.882 382.032 1.64516 551.264" stroke="#610018"/>
<path d="M163.839 185.515C199.065 122.321 284.197 0.61459 342.919 19.3372C401.642 38.0597 139.892 381.676 1.67742 551.144" stroke="#5D0016"/>
<path d="M163.855 185.509C199.258 121.568 284.387 -1.49145 341.677 17.7989C398.968 37.0892 138.903 381.32 1.70968 551.025" stroke="#5A0014"/>
<path d="M163.871 185.504C199.452 120.816 284.577 -3.59626 340.435 16.2618C396.294 36.1199 137.914 380.966 1.74194 550.907" stroke="#570011"/>
<path d="M163.887 185.5C199.645 120.065 284.768 -5.70001 339.194 14.7258C393.619 35.1516 136.925 380.613 1.77419 550.79" stroke="#54000F"/>
<path d="M163.903 185.497C199.839 119.314 284.958 -7.80275 337.952 13.1908C390.945 34.1843 135.935 380.261 1.80645 550.675" stroke="#50000D"/>
<path d="M163.919 185.495C200.032 118.565 285.148 -9.90462 336.71 11.6567C388.271 33.218 134.946 379.909 1.83871 550.56" stroke="#4D000B"/>
<path d="M163.935 185.495C200.226 117.817 285.339 -12.0054 335.468 10.1236C385.597 32.2526 133.957 379.559 1.87097 550.446" stroke="#4A0009"/>
<path d="M163.952 185.495C200.419 117.07 285.529 -14.1053 334.226 8.59146C382.923 31.2882 132.968 379.21 1.90322 550.333" stroke="#470007"/>
<path d="M163.968 185.496C200.613 116.324 285.719 -16.2043 332.984 7.06018C380.248 30.3247 131.978 378.861 1.93548 550.221" stroke="#430004"/>
<path d="M163.984 185.497C200.806 115.578 285.91 -18.3026 331.742 5.52964C377.574 29.3619 130.989 378.513 1.96774 550.11" stroke="#400002"/>
</svg>
